<mxfile host="app.diagrams.net" modified="2020-05-13T08:40:56.967Z" agent="5.0 (Windows NT 10.0; Win64; x64) AppleWebKit/537.36 (KHTML, like Gecko) Chrome/80.0.3987.132 Safari/537.36" etag="bMG813Z5kMSqqDPeP-4l" version="13.0.3" type="github">
  <diagram id="P5cq3y5BGLljsCx4w7et" name="Page-1">
    <mxGraphModel dx="1422" dy="762" grid="1" gridSize="10" guides="1" tooltips="1" connect="1" arrows="1" fold="1" page="1" pageScale="1" pageWidth="850" pageHeight="1100" math="0" shadow="0">
      <root>
        <mxCell id="0" />
        <mxCell id="1" parent="0" />
        <mxCell id="yG3tzydrKLHRH_x4bZG6-2" value="AWS Cloud" style="points=[[0,0],[0.25,0],[0.5,0],[0.75,0],[1,0],[1,0.25],[1,0.5],[1,0.75],[1,1],[0.75,1],[0.5,1],[0.25,1],[0,1],[0,0.75],[0,0.5],[0,0.25]];outlineConnect=0;gradientColor=none;html=1;whiteSpace=wrap;fontSize=12;fontStyle=0;shape=mxgraph.aws4.group;grIcon=mxgraph.aws4.group_aws_cloud_alt;strokeColor=#232F3E;fillColor=none;verticalAlign=top;align=left;spacingLeft=30;fontColor=#232F3E;dashed=0;" vertex="1" parent="1">
          <mxGeometry x="280" y="10" width="540" height="480" as="geometry" />
        </mxCell>
        <mxCell id="yG3tzydrKLHRH_x4bZG6-3" value="EU West 1" style="points=[[0,0],[0.25,0],[0.5,0],[0.75,0],[1,0],[1,0.25],[1,0.5],[1,0.75],[1,1],[0.75,1],[0.5,1],[0.25,1],[0,1],[0,0.75],[0,0.5],[0,0.25]];outlineConnect=0;gradientColor=none;html=1;whiteSpace=wrap;fontSize=12;fontStyle=0;shape=mxgraph.aws4.group;grIcon=mxgraph.aws4.group_region;strokeColor=#147EBA;fillColor=none;verticalAlign=top;align=left;spacingLeft=30;fontColor=#147EBA;dashed=0;" vertex="1" parent="1">
          <mxGeometry x="295" y="40" width="510" height="430" as="geometry" />
        </mxCell>
        <mxCell id="yG3tzydrKLHRH_x4bZG6-19" value="S3 &lt;br&gt;bucket" style="text;html=1;align=center;verticalAlign=middle;resizable=0;points=[];autosize=1;" vertex="1" parent="1">
          <mxGeometry x="570" y="84.22999999999999" width="50" height="30" as="geometry" />
        </mxCell>
        <mxCell id="yG3tzydrKLHRH_x4bZG6-1" value="VPC network:private" style="points=[[0,0],[0.25,0],[0.5,0],[0.75,0],[1,0],[1,0.25],[1,0.5],[1,0.75],[1,1],[0.75,1],[0.5,1],[0.25,1],[0,1],[0,0.75],[0,0.5],[0,0.25]];outlineConnect=0;gradientColor=none;html=1;whiteSpace=wrap;fontSize=12;fontStyle=0;shape=mxgraph.aws4.group;grIcon=mxgraph.aws4.group_vpc;strokeColor=#248814;fillColor=none;verticalAlign=top;align=left;spacingLeft=30;fontColor=#AAB7B8;dashed=0;" vertex="1" parent="1">
          <mxGeometry x="312.5" y="177.87" width="475" height="223.27" as="geometry" />
        </mxCell>
        <mxCell id="yG3tzydrKLHRH_x4bZG6-35" value="" style="group" vertex="1" connectable="0" parent="1">
          <mxGeometry x="10" y="10" width="232" height="480" as="geometry" />
        </mxCell>
        <mxCell id="yG3tzydrKLHRH_x4bZG6-34" value="" style="rounded=0;whiteSpace=wrap;html=1;" vertex="1" parent="yG3tzydrKLHRH_x4bZG6-35">
          <mxGeometry x="2" width="230" height="480" as="geometry" />
        </mxCell>
        <mxCell id="yG3tzydrKLHRH_x4bZG6-31" value="Airbus LAN" style="text;html=1;align=center;verticalAlign=middle;resizable=0;points=[];autosize=1;fontColor=#000000;" vertex="1" parent="yG3tzydrKLHRH_x4bZG6-35">
          <mxGeometry width="80" height="20" as="geometry" />
        </mxCell>
        <mxCell id="yG3tzydrKLHRH_x4bZG6-36" value="SAS DB" style="shape=cylinder;whiteSpace=wrap;html=1;boundedLbl=1;backgroundOutline=1;" vertex="1" parent="yG3tzydrKLHRH_x4bZG6-35">
          <mxGeometry x="80" y="219" width="66" height="91" as="geometry" />
        </mxCell>
        <mxCell id="yG3tzydrKLHRH_x4bZG6-38" value="" style="endArrow=classic;html=1;" edge="1" parent="yG3tzydrKLHRH_x4bZG6-35">
          <mxGeometry width="50" height="50" relative="1" as="geometry">
            <mxPoint x="350" y="270" as="sourcePoint" />
            <mxPoint x="146" y="270" as="targetPoint" />
          </mxGeometry>
        </mxCell>
        <mxCell id="yG3tzydrKLHRH_x4bZG6-39" value="1 - get data as csv" style="edgeLabel;html=1;align=center;verticalAlign=middle;resizable=0;points=[];" vertex="1" connectable="0" parent="yG3tzydrKLHRH_x4bZG6-38">
          <mxGeometry x="0.1961" relative="1" as="geometry">
            <mxPoint x="22" y="-10" as="offset" />
          </mxGeometry>
        </mxCell>
        <mxCell id="yG3tzydrKLHRH_x4bZG6-9" value="sas monitoring lambda" style="outlineConnect=0;fontColor=#232F3E;gradientColor=none;fillColor=#D05C17;strokeColor=none;dashed=0;verticalLabelPosition=bottom;verticalAlign=top;align=center;html=1;fontSize=12;fontStyle=0;aspect=fixed;pointerEvents=1;shape=mxgraph.aws4.lambda_function;" vertex="1" parent="1">
          <mxGeometry x="507" y="246" width="63.5" height="63.5" as="geometry" />
        </mxCell>
        <mxCell id="yG3tzydrKLHRH_x4bZG6-13" value="" style="outlineConnect=0;fontColor=#232F3E;gradientColor=none;fillColor=#277116;strokeColor=none;dashed=0;verticalLabelPosition=bottom;verticalAlign=top;align=center;html=1;fontSize=12;fontStyle=0;aspect=fixed;pointerEvents=1;shape=mxgraph.aws4.bucket_with_objects;" vertex="1" parent="1">
          <mxGeometry x="517" y="70.63" width="55" height="57.2" as="geometry" />
        </mxCell>
        <mxCell id="yG3tzydrKLHRH_x4bZG6-37" value="EC2 with crontask" style="outlineConnect=0;fontColor=#232F3E;gradientColor=#F78E04;gradientDirection=north;fillColor=#D05C17;strokeColor=#ffffff;dashed=0;verticalLabelPosition=bottom;verticalAlign=top;align=center;html=1;fontSize=12;fontStyle=0;aspect=fixed;shape=mxgraph.aws4.resourceIcon;resIcon=mxgraph.aws4.ec2;" vertex="1" parent="1">
          <mxGeometry x="366" y="250" width="59.5" height="59.5" as="geometry" />
        </mxCell>
        <mxCell id="yG3tzydrKLHRH_x4bZG6-40" value="" style="endArrow=classic;html=1;" edge="1" parent="1" target="yG3tzydrKLHRH_x4bZG6-13">
          <mxGeometry width="50" height="50" relative="1" as="geometry">
            <mxPoint x="425.5" y="250" as="sourcePoint" />
            <mxPoint x="475.5" y="200" as="targetPoint" />
          </mxGeometry>
        </mxCell>
        <mxCell id="yG3tzydrKLHRH_x4bZG6-41" value="2 - upload csv files&amp;nbsp; to S3" style="text;html=1;strokeColor=none;fillColor=none;align=center;verticalAlign=middle;whiteSpace=wrap;rounded=0;" vertex="1" parent="1">
          <mxGeometry x="340" y="140" width="146" height="20" as="geometry" />
        </mxCell>
        <mxCell id="yG3tzydrKLHRH_x4bZG6-43" value="" style="endArrow=classic;html=1;" edge="1" parent="1" target="yG3tzydrKLHRH_x4bZG6-9">
          <mxGeometry width="50" height="50" relative="1" as="geometry">
            <mxPoint x="539" y="130" as="sourcePoint" />
            <mxPoint x="560" y="177.87" as="targetPoint" />
          </mxGeometry>
        </mxCell>
        <mxCell id="yG3tzydrKLHRH_x4bZG6-44" value="3 - trigger" style="text;html=1;strokeColor=none;fillColor=none;align=center;verticalAlign=middle;whiteSpace=wrap;rounded=0;" vertex="1" parent="1">
          <mxGeometry x="479" y="206" width="60" height="20" as="geometry" />
        </mxCell>
        <mxCell id="yG3tzydrKLHRH_x4bZG6-46" value="" style="endArrow=classic;html=1;" edge="1" parent="1">
          <mxGeometry width="50" height="50" relative="1" as="geometry">
            <mxPoint x="549.5" y="246" as="sourcePoint" />
            <mxPoint x="549.5" y="126" as="targetPoint" />
          </mxGeometry>
        </mxCell>
        <mxCell id="yG3tzydrKLHRH_x4bZG6-47" value="4 - push results" style="text;html=1;strokeColor=none;fillColor=none;align=center;verticalAlign=middle;whiteSpace=wrap;rounded=0;" vertex="1" parent="1">
          <mxGeometry x="550" y="207" width="90" height="20" as="geometry" />
        </mxCell>
      </root>
    </mxGraphModel>
  </diagram>
</mxfile>
